HIERARCHY
ROOT Hips
{
	OFFSET	0.00	0.00	0.00
	CHANNELS 6 Xposition Yposition Zposition Zrotation Xrotation Yrotation
	JOINT Chest
	{
		OFFSET	0.00	6.28	0.00
		CHANNELS 3 Zrotation Xrotation Yrotation
		JOINT Neck
		{
			OFFSET	0.00	14.30	0.00
			CHANNELS 3 Zrotation Xrotation Yrotation
			JOINT Head
			{
				OFFSET	0.00	2.64	0.00
				CHANNELS 3 Zrotation Xrotation Yrotation
				End Site
				{
					OFFSET	0.00	4.50	0.00
				}
			}
		}
		JOINT LeftCollar
		{
			OFFSET	1.12	11.36	1.87
			CHANNELS 3 Zrotation Xrotation Yrotation
			JOINT LeftUpArm
			{
				OFFSET	4.57	2.02	-1.82
				CHANNELS 3 Zrotation Xrotation Yrotation
				JOINT LeftLowArm
				{
					OFFSET	0.22	-10.35	-0.06
					CHANNELS 3 Zrotation Xrotation Yrotation
					JOINT LeftHand
					{
						OFFSET	0.09	-10.35	2.18
						CHANNELS 3 Zrotation Xrotation Yrotation
						End Site
						{
							OFFSET	0.13	-6.69	1.71
						}
					}
				}
			}
		}
		JOINT RightCollar
		{
			OFFSET	-1.12	11.36	1.87
			CHANNELS 3 Zrotation Xrotation Yrotation
			JOINT RightUpArm
			{
				OFFSET	-4.71	2.03	-1.82
				CHANNELS 3 Zrotation Xrotation Yrotation
				JOINT RightLowArm
				{
					OFFSET	-0.26	-10.43	-0.06
					CHANNELS 3 Zrotation Xrotation Yrotation
					JOINT RightHand
					{
						OFFSET	0.00	-10.26	2.18
						CHANNELS 3 Zrotation Xrotation Yrotation
						End Site
						{
							OFFSET	-0.14	-6.67	1.71
						}
					}
				}
			}
		}
	}
	JOINT LeftUpLeg
	{
		OFFSET	3.91	0.00	0.00
		CHANNELS 3 Zrotation Xrotation Yrotation
		JOINT LeftLowLeg
		{
			OFFSET	-0.44	-17.57	1.70
			CHANNELS 3 Zrotation Xrotation Yrotation
			JOINT LeftFoot
			{
				OFFSET	-0.04	-17.20	-1.48
				CHANNELS 3 Zrotation Xrotation Yrotation
				End Site
				{
					OFFSET	0.00	-3.93	5.23
				}
			}
		}
	}
	JOINT RightUpLeg
	{
		OFFSET	-3.91	0.00	0.00
		CHANNELS 3 Zrotation Xrotation Yrotation
		JOINT RightLowLeg
		{
			OFFSET	0.44	-17.62	1.70
			CHANNELS 3 Zrotation Xrotation Yrotation
			JOINT RightFoot
			{
				OFFSET	0.00	-17.14	-1.48
				CHANNELS 3 Zrotation Xrotation Yrotation
				End Site
				{
					OFFSET	0.00	-4.04	5.23
				}
			}
		}
	}
}
MOTION
Frames: 17
Frame Time: 0.04
-1.37	-5.63	1.02	-97.77	3.02	91.86	7.62	28.28	-5.07	0.04	-25.20	-3.75	0.21	-38.83	0.18	-19.59	20.13	22.70	-110.11	-62.87	-83.61	150.73	-68.84	27.90	-69.31	10.37	-11.47	18.89	33.85	-31.94	165.86	-25.49	-110.86	-3.18	20.25	-3.50	-52.20	7.17	-9.76	1.92	-30.70	-11.58	-1.97	-9.21	-7.24	-10.14	14.88	3.41	-8.89	-25.35	-17.12	1.95	-9.22	5.70	5.55	-3.22	4.71	
-0.32	-8.76	0.82	-95.39	2.55	89.97	5.83	28.41	-0.16	0.54	-19.34	-5.72	-3.45	-37.62	-2.91	-31.85	21.58	20.71	-159.13	-59.02	-147.84	20.57	-51.38	-87.89	-25.36	3.64	-5.22	29.34	32.86	-31.15	170.66	-34.66	-125.92	-12.76	-0.36	13.10	-47.34	6.37	-9.08	1.89	-21.92	-10.95	-2.07	-9.21	-8.39	-6.74	8.45	1.47	-8.56	-16.43	-8.63	1.90	-9.23	5.06	6.08	-8.06	5.20	
0.11	-11.49	0.77	-90.80	2.47	88.72	9.67	26.17	-3.46	-5.76	-10.34	-5.18	0.54	-26.92	0.38	-38.43	17.40	17.53	175.38	-69.77	170.64	19.97	-49.20	-81.32	-26.62	3.75	-5.47	36.04	38.78	-39.97	172.66	-34.10	-121.51	-10.20	-14.82	18.16	-44.18	5.88	-8.60	0.74	-12.90	-5.88	-2.34	-9.17	-11.47	-5.84	2.02	0.62	-8.51	-7.72	-2.96	1.79	-9.25	3.83	8.76	-11.07	5.75	
0.24	-13.88	0.81	-85.16	1.77	87.49	11.39	24.95	-5.19	-9.10	-2.86	-5.47	0.85	-18.96	0.51	-32.07	16.71	16.13	-7.94	-71.14	6.65	164.23	-50.96	44.24	-84.61	13.53	-12.22	34.75	40.00	-46.77	168.86	-39.31	-122.85	-9.25	-14.41	16.66	-42.95	5.70	-8.40	0.30	-5.43	-1.89	-2.08	-9.20	-8.54	-6.15	-2.02	0.23	-6.18	0.32	-7.23	1.96	-9.23	5.81	12.00	-11.86	6.20	
0.14	-15.95	0.89	-81.09	0.57	86.91	8.67	23.60	-2.47	-6.14	3.86	-6.73	-0.37	-17.48	-0.21	-28.38	19.00	15.09	3.29	-67.01	18.42	164.64	-48.51	48.14	-86.12	13.85	-12.24	26.01	34.99	-36.09	-175.72	-56.07	-109.69	-7.83	-20.44	17.60	-41.64	5.51	-8.19	-0.49	-1.22	3.89	-1.72	-9.22	-4.48	-1.31	-1.72	-0.08	-4.86	4.84	-6.49	1.67	-9.24	2.52	17.64	-13.23	7.24	
0.23	-17.72	0.99	-78.48	-0.35	87.74	7.87	21.88	-2.68	-5.06	8.59	-6.61	-0.56	-17.10	-0.32	-29.11	20.29	13.48	118.14	-50.61	39.33	6.93	-34.58	-20.80	22.96	3.43	4.76	23.26	33.80	-30.48	-155.88	-61.27	-90.18	-6.29	-27.41	16.64	-41.56	5.50	-8.18	-0.29	2.19	3.19	-1.59	-9.21	-3.11	-2.10	4.25	0.18	-1.87	6.09	-12.21	1.61	-9.24	1.91	14.79	-12.93	6.78	
0.06	-19.36	1.05	-75.48	-0.36	89.86	7.91	21.48	-5.10	-5.37	11.16	-5.36	-1.21	-15.66	-0.67	-28.77	20.85	13.72	113.40	-46.58	32.92	7.25	-41.88	-18.78	23.26	3.45	4.81	22.53	34.47	-30.08	-145.32	-61.65	-78.23	-5.87	-33.01	14.18	-39.23	5.17	-7.80	-0.97	7.42	-0.46	-1.21	-9.20	1.40	0.13	2.26	-0.20	1.14	10.11	-17.85	1.43	-9.23	-0.15	6.27	-10.43	5.47	
-0.26	-21.28	1.08	-71.04	-1.08	89.57	9.17	20.78	-5.68	-6.95	14.85	-4.50	-2.70	-15.00	-1.46	-25.18	18.55	11.90	39.15	-57.56	47.21	149.81	-66.19	52.84	-74.55	11.43	-11.82	19.00	34.64	-28.86	-132.27	-62.02	-61.30	-6.18	-37.86	13.73	-37.25	4.91	-7.46	-0.99	6.61	0.45	-1.39	7.94	4.61	1.48	-10.35	-0.03	0.86	17.10	-12.25	0.98	-9.19	-5.37	8.08	-11.15	5.70	
-0.48	-23.16	1.15	-66.24	-1.22	89.52	9.35	21.39	-5.88	-7.28	17.32	-3.94	-3.04	-13.46	-1.57	-21.44	17.08	10.81	16.97	-43.86	36.98	165.00	-43.58	60.15	-90.25	14.72	-12.27	14.78	32.70	-27.30	-116.90	-62.69	-43.36	-6.25	-42.55	12.35	-36.75	4.85	-7.37	-0.38	11.79	4.52	-1.78	13.92	1.49	-0.33	-17.04	-0.20	-0.72	25.04	-7.76	0.97	-9.19	-5.55	10.92	-14.27	6.56	
-0.57	-24.79	1.25	-63.11	-1.13	90.49	9.68	21.10	-6.50	-6.95	19.51	-3.47	-3.68	-12.92	-1.88	-17.54	15.55	9.38	85.80	-35.33	2.24	8.49	-53.56	-15.89	23.39	3.46	4.84	11.64	30.48	-26.18	-102.82	-61.16	-27.50	-6.58	-47.66	11.32	-36.47	4.81	-7.32	1.65	15.83	10.15	-2.66	18.03	-7.42	0.29	-20.71	-0.05	-2.85	31.10	-3.41	1.10	-9.20	-3.99	10.76	-18.81	7.38	
-0.60	-26.10	1.27	-61.96	-1.01	92.01	11.29	19.19	-8.81	-7.84	21.31	-2.79	-4.18	-12.23	-2.09	-14.30	12.36	7.35	79.11	-28.95	-6.03	8.89	-57.04	-14.52	22.32	3.38	4.63	8.64	30.00	-25.68	-94.70	-59.20	-18.94	-7.31	-52.77	10.81	-36.54	4.82	-7.34	2.25	19.09	10.38	-2.38	17.75	-4.12	0.04	-23.64	-0.10	-5.57	34.51	2.32	1.27	-9.20	-1.97	11.34	-20.10	7.77	
-0.57	-27.18	1.24	-60.48	-0.56	92.89	11.42	18.29	-9.75	-7.07	22.65	-2.85	-4.53	-8.71	-2.00	-11.11	10.90	5.63	76.27	-24.08	-12.47	8.97	-59.30	-13.18	21.40	3.30	4.45	5.20	28.38	-23.43	-84.36	-55.99	-9.34	-8.19	-56.22	10.82	-36.93	4.87	-7.40	2.88	21.43	3.89	-2.30	19.20	-2.51	-3.38	-24.79	-1.22	-8.50	37.50	6.47	1.49	-9.20	0.57	13.51	-19.32	8.13	
-0.50	-28.17	1.30	-58.92	-1.24	91.93	11.11	15.94	-8.41	-6.06	26.60	-2.71	-3.71	-8.34	-1.62	-5.32	6.13	1.08	71.24	-16.32	-24.11	8.87	-61.14	-11.82	24.92	3.60	5.14	-4.56	20.93	-14.36	-64.18	-45.83	9.39	-8.48	-57.56	10.57	-37.13	4.89	-7.44	4.50	25.30	3.67	-2.46	18.44	-4.20	-6.46	-24.50	-2.21	-11.01	39.74	11.52	1.60	-9.20	1.85	18.81	-19.54	9.51	
-0.35	-28.45	1.34	-59.80	-1.52	92.39	10.62	13.40	-8.10	-5.09	27.77	-3.65	-3.88	-7.21	-1.62	-3.20	5.07	-0.35	70.58	-14.13	-28.92	8.83	-62.10	-11.13	24.68	3.58	5.09	-6.35	18.09	-12.42	-60.59	-41.73	15.13	-8.04	-57.68	9.74	-36.28	4.78	-7.29	6.15	25.62	4.51	-2.73	17.44	-7.67	-7.81	-22.57	-2.40	-10.32	39.86	11.10	1.49	-9.20	0.57	18.94	-17.95	9.01	
-0.20	-28.30	1.34	-61.32	-1.58	92.95	9.77	11.04	-7.57	-3.87	26.64	-4.59	-4.54	-5.56	-1.77	-3.37	6.39	0.23	71.92	-16.41	-29.77	7.98	-60.94	-10.60	26.35	3.73	5.41	-3.87	18.43	-13.79	-64.21	-43.10	17.38	-6.61	-55.51	8.16	-35.01	4.62	-7.07	6.64	24.65	1.62	-2.62	15.84	-6.96	-9.61	-20.47	-2.60	-7.64	39.57	5.36	1.28	-9.19	-1.86	14.86	-14.04	7.08	
-0.20	-28.20	1.36	-60.38	-2.04	92.56	9.74	9.33	-6.85	-3.87	25.90	-4.08	-5.07	-4.88	-1.92	-2.41	5.40	-0.37	70.40	-17.86	-33.29	6.80	-58.34	-10.08	25.77	3.67	5.30	-7.43	17.17	-11.69	-60.68	-43.17	24.90	-4.78	-51.46	5.81	-34.52	4.57	-6.98	6.95	24.77	-0.79	-2.50	17.51	-5.21	-10.44	-20.61	-2.84	-4.00	34.17	-4.50	1.50	5.38	-1.79	3.70	-18.52	5.79	
-0.32	-28.10	1.35	-58.11	-2.53	91.43	10.32	7.83	-6.16	-5.10	26.41	-3.03	-5.47	-5.56	-2.13	0.18	1.50	-2.57	64.89	-16.61	-39.23	5.62	-54.78	-9.37	24.16	3.53	4.99	-14.73	11.15	-5.31	-51.60	-38.05	35.52	-3.50	-47.59	3.67	-33.01	4.38	-6.71	7.18	25.32	0.79	-2.66	21.45	-5.94	-10.18	-22.18	-3.04	-4.27	31.07	-4.41	1.43	16.29	-3.67	3.51	-21.52	5.93	
